<svg width="580" height="400" xmlns="http://www.w3.org/2000/svg">
 <!-- Created with Method Draw - http://github.com/duopixel/Method-Draw/ -->
 <g>
  <title>Pig</title>
  <rect fill="#fff" id="canvas_background" height="402" width="582" y="-1" x="-1"/>
  <g display="none" overflow="visible" y="0" x="0" height="100%" width="100%" id="canvasGrid">
   <rect fill="url(#gridpattern)" stroke-width="0" y="0" x="0" height="100%" width="100%"/>
  </g>
 </g>
 <g>
  <title>Layer 1</title>
  <ellipse id="svg_18" cy="74.4375" cx="476.5" fill-opacity="null" stroke-opacity="null" stroke-width="1.5" stroke="#000" fill="none"/>
  <ellipse id="svg_19" cy="105.4375" cx="515.5" fill-opacity="null" stroke-opacity="null" stroke-width="1.5" stroke="#000" fill="none"/>
  <ellipse id="svg_20" cy="239.4375" cx="532.5" fill-opacity="null" stroke-opacity="null" stroke-width="1.5" stroke="#000" fill="none"/>
  <rect transform="rotate(45 247.50000000000006,137.93749999999997) " id="svg_41" height="53" width="52" y="111.4375" x="221.5" fill-opacity="null" stroke-opacity="null" stroke-width="1.5" stroke="#000" fill="#ffaaff"/>
  <rect transform="rotate(45 247.50000000000006,137.93749999999997) " id="svg_42" height="38" width="40" y="118.4375" x="227.5" stroke-width="1.5" stroke="#000" fill="#ff56aa"/>
  <rect transform="rotate(-45 247.49999999999997,137.9375) " id="svg_43" height="53" width="52" y="111.4375" x="221.5" fill-opacity="null" stroke-opacity="null" stroke-width="1.5" stroke="#000" fill="#ffaaff"/>
  <rect transform="rotate(-45 247.4999999999999,137.43749999999997) " id="svg_44" height="38" width="40" y="118.4375" x="227.5" stroke-width="1.5" stroke="#000" fill="#ff56aa"/>
  <rect transform="rotate(45 327.50000000000017,138.93749999999994) " id="svg_37" height="53" width="52" y="112.4375" x="301.5" fill-opacity="null" stroke-opacity="null" stroke-width="1.5" stroke="#000" fill="#ffaaff"/>
  <rect transform="rotate(45 327.50000000000017,138.93749999999994) " id="svg_38" height="38" width="40" y="119.4375" x="307.5" stroke-width="1.5" stroke="#000" fill="#ff56aa"/>
  <rect transform="rotate(-45 327.49999999999994,138.4375) " id="svg_39" height="53" width="52" y="112.4375" x="301.5" fill-opacity="null" stroke-opacity="null" stroke-width="1.5" stroke="#000" fill="#ffaaff"/>
  <rect transform="rotate(-45 327.49999999999994,138.4375) " id="svg_40" height="38" width="40" y="119.4375" x="307.5" stroke-width="1.5" stroke="#000" fill="#ff56aa"/>
  <rect stroke="#000" id="svg_32" height="139.999996" width="152.999996" y="139.4375" x="211.500004" stroke-opacity="null" stroke-width="1.5" fill="#ffaaff"/>
  <rect id="svg_34" height="39" width="52" y="209.4375" x="261.5" stroke-width="1.5" stroke="#000" fill="#ff56aa"/>
  <rect id="svg_35" height="19" width="22" y="177.4375" x="229.5" stroke-width="1.5" stroke="#ff56aa" fill="#000"/>
  <rect id="svg_36" height="21" width="20" y="178.4375" x="326.5" stroke-width="1.5" stroke="#ff56aa" fill="#000"/>
  <rect id="svg_45" height="30" width="16" y="215.4375" x="268.5" stroke-width="1.5" stroke="#ffaad4" fill="#000"/>
  <rect id="svg_47" height="30" width="16" y="215.4375" x="291.5" stroke-width="1.5" stroke="#ffaad4" fill="#000"/>
 </g>
</svg>