<svg width="580" height="400" xmlns="http://www.w3.org/2000/svg">
 <!-- Created with Method Draw - http://github.com/duopixel/Method-Draw/ -->
 <g>
  <title>Dark tree</title>
  <rect fill="#fff" id="canvas_background" height="402" width="582" y="-1" x="-1"/>
  <g display="none" overflow="visible" y="0" x="0" height="100%" width="100%" id="canvasGrid">
   <rect fill="url(#gridpattern)" stroke-width="0" y="0" x="0" height="100%" width="100%"/>
  </g>
 </g>
 <g>
  <title>Layer 1</title>
  <rect id="svg_170" height="643" width="980" y="-92.5625" x="-255.5" stroke-width="1.5" stroke="#ffffff" fill="#000000"/>
  <path id="svg_169" d="m223.97398,205.475186c-0.70719,0 -1.070685,-0.58878 -1.070685,-1.294832c0,-0.588643 0.18172,-1.160148 0.70719,-1.160148c0.363495,0 0.91069,0.571505 1.09241,1.160148c0.363495,0.857053 0,1.294832 -0.728915,1.294832zm120.886699,33.595032c1.617935,0 1.981375,0.151001 1.070685,1.160012c-0.52547,0.706052 -1.61788,1.294695 -2.14335,1.294695c-0.54714,0 -1.09241,-0.588643 -1.09241,-1.294695c0,-0.723372 0.72897,-1.160012 2.165075,-1.160012zm-112.957294,-41.094293c-1.61788,-0.285684 -1.799655,-1.732338 0,-2.169114c0.910635,-0.134501 1.43616,0.285639 1.43616,1.160148c0,0.723281 -0.525525,1.143603 -1.43616,1.008965zm-20.167235,45.70093c2.165075,-0.420368 2.165075,-0.722506 1.43616,-1.715063c-0.54527,-0.722506 -0.72699,-1.596925 -0.363495,-1.882655c0.18172,-0.437551 1.09241,0 1.61788,0.857144c0.728915,1.160148 1.27413,1.312061 2.71029,0.588643c0.890945,-0.436731 1.61788,-0.72319 1.61788,-0.285639c0,0.285639 0.547195,0 1.254385,-0.588643c1.092465,-0.857144 1.274185,-2.740574 0.181775,-3.74963c-0.888965,-0.857144 -5.400835,-0.571414 -6.65522,0.436731c-0.72699,0.723418 -1.274185,0.572326 -1.981375,-0.722369c-1.09241,-2.152751 -1.09241,-2.45498 1.436105,-2.589482c2.165075,0 2.165075,0 0.363495,-0.874418c-0.90871,-0.420368 -1.7996,-1.294695 -1.7996,-1.866201c0,-1.446562 2.50877,-2.303706 3.60118,-1.29465c0.363495,0.420277 1.07074,0.857144 1.799655,0.857144c1.43616,0 8.292845,-4.89255 8.292845,-5.901606c0,-0.437505 0.70917,-0.723144 1.43616,-0.437505c0.89089,0.151867 2.508825,-0.285639 4.14843,-1.009057c2.32507,-1.160057 2.32507,-1.294695 1.070685,-3.17735c-0.888965,-1.294695 -1.981375,-1.732338 -4.509945,-1.732338c-2.872265,0 -3.60118,0.285776 -4.490145,2.018113c-0.365475,1.160012 -1.45783,2.017201 -2.165075,2.017201c-1.254385,0 -1.61788,-1.29392 -0.363495,-2.017201c0.545215,-0.285776 0.90871,-1.294695 0.90871,-2.303752c0,-1.580516 -0.363495,-1.866201 -2.71029,-1.445787c-2.346795,0.285639 -2.346795,0.151001 -1.799655,-2.018204c0.363495,-1.29465 0.888965,-2.454707 1.25444,-2.589345c0.363495,-0.151001 0.726935,-1.445787 0.726935,-2.740482c0,-2.589619 1.072665,-3.026349 3.05602,-1.160148c0.908655,1.009011 1.455905,1.160148 1.7996,0.285639c0.363495,-0.571414 1.637625,-0.706052 3.62098,-0.420414c2.690545,0.571505 2.872265,0.420414 2.50877,-1.294695c-0.18172,-1.00892 -0.36542,-2.169068 -0.54714,-2.454707c0,-0.436867 -0.888965,-1.009057 -1.96163,-1.445924c-2.165075,-0.723144 -2.71029,-2.454707 -0.728915,-2.454707c0.547195,0 1.07261,-0.285776 1.07261,-0.858056c0,-0.436867 1.092465,-0.722506 2.52857,-0.588734c1.983355,0.151867 3.05404,-0.420186 5.76433,-3.446398c1.983355,-2.169205 3.41946,-3.329262 3.601235,-2.740619c0.18172,0.722506 1.09241,1.142783 1.9833,1.142783c1.43616,0 1.617935,-0.420277 1.092465,-2.302931c-0.1837,-1.294786 -1.092465,-2.875121 -1.639605,-3.598538c-1.617935,-1.597563 -1.617935,-3.463763 0,-2.892486c1.27413,0.572326 5.238805,-1.008145 5.238805,-2.017156c0,-0.437551 0.52745,-0.723281 1.254385,-0.723281c0.72897,0 1.072665,0.874373 1.072665,2.018067c0,1.445787 0.363495,2.017293 1.274185,1.596879c0.70719,-0.302184 1.25444,-1.160148 1.25444,-1.731517c0,-1.732429 5.764275,-4.758687 7.20038,-3.900768c0.54725,0.285867 1.09241,0 1.27622,-1.00892c0.525415,-2.018067 3.78092,-3.598538 5.217025,-2.589482c0.72897,0.420277 1.436215,0.285776 1.619915,-0.151001c0.36344,-0.57228 1.7996,-1.009057 3.41748,-1.143786c1.61788,-0.151001 3.782955,-0.723281 4.693645,-1.311924c3.41748,-1.866201 6.836995,-1.731563 8.2731,0.286642c0.91069,1.445696 1.27413,1.445696 1.27413,0.436639c0,-1.294786 0.709225,-1.445787 5.037395,-1.00892c6.85674,0.57228 7.929405,0.57228 10.457975,-0.151137c1.61788,-0.420368 2.16502,-0.28573 2.16502,0.874282c0,0.723418 0.525525,1.294832 1.25444,1.294832c0.545215,0 1.070685,-0.420414 1.070685,-0.857965c0,-1.160012 2.894045,-1.731517 5.42256,-1.160012c1.96163,0.57228 2.14335,0.723144 1.61788,4.607413c-0.18172,2.320206 0,3.900676 0.34375,3.900676c0.36344,0 0.728915,-1.009057 0.728915,-2.454844c0,-2.43839 1.981375,-3.446626 2.71029,-1.445833c0.181775,0.722552 0.70719,0.436776 1.070685,-0.706007c0.910745,-3.027124 2.894045,-1.446699 2.346795,1.866201c-0.54516,2.740482 -0.54516,2.740482 1.07272,1.731426c0.910635,-0.436776 1.617825,-1.580334 1.617825,-2.302931c0,-0.723327 0.54725,-1.581246 1.27424,-1.883475c1.43605,-0.571278 3.055965,1.597016 2.528515,3.178125c-0.18172,0.722643 -0.18172,1.294786 0.343695,1.294786c0.365475,0 0.72897,-0.420277 0.72897,-0.723281c0,-0.420368 0.89089,-0.571505 1.9833,-0.285639c2.34487,0.436776 2.688565,1.596788 0.707245,2.30284c-0.52547,0.303004 -1.072665,1.009057 -1.072665,1.597791c0,1.009057 0.36542,1.009057 2.346795,0c3.23576,-1.731517 4.671865,-1.597791 5.219115,0.285639c0.36344,1.009057 1.07261,1.446608 1.7996,1.009057c0.728915,-0.151092 2.346795,0.437551 3.601235,1.445787c1.09241,0.857919 2.71029,1.580471 3.439205,1.580471c1.072665,0 1.072665,0.723372 0.70719,2.741348c-0.36344,2.169205 -0.36344,2.454844 0.72897,1.580562c1.436105,-1.42947 1.981375,-1.294923 2.508825,0.722369c0.18172,1.009057 1.45585,1.732338 2.89201,2.169114c1.61788,0.286642 2.508825,1.009011 2.508825,1.866976c0,0.874373 0.54516,1.882655 1.09241,2.454935c1.43616,1.00892 1.070685,4.035178 -0.54725,5.044189c-0.54516,0.302229 -1.25433,0.151137 -1.436105,-0.285639c-0.36344,-0.437642 -1.61788,-0.437642 -3.96473,0c-3.782955,1.008145 -4.490145,1.294695 -3.60118,2.605844c0.547195,0.857144 6.83892,0.571505 10.2762,-0.437551c1.072665,-0.436822 1.43616,0 1.43616,2.018113c0,1.445696 -0.363495,2.589482 -0.90871,2.589482c-0.365475,0 -0.70917,0.436731 -0.70917,1.160012c0,1.732246 0.890945,1.580334 3.23774,-0.436867c1.252405,-1.160012 1.98132,-1.446562 2.872265,-0.723144c0.90871,0.723144 1.09241,0.723144 1.09241,-0.436867c0,-0.706918 -0.365475,-1.294695 -0.910635,-1.294695c-0.34375,0 -0.709225,-0.57228 -0.709225,-1.143786c0,-0.72319 0.52745,-1.294695 1.254385,-1.294695c0.547195,0 1.274185,0.285639 1.274185,0.706052c0,0.437733 0.70917,1.009011 1.61986,1.160148c1.25246,0.437642 1.61788,1.009057 1.436105,2.740574c-0.36542,3.312672 0.36355,4.321819 3.05404,3.750405c1.274185,-0.286642 1.98132,0 1.43616,0.571414c-0.161975,0.285639 0,1.009057 0.363495,1.311058c1.45783,0.85801 0.910635,2.875348 -0.707245,2.875348c-1.9833,0 -2.52857,0.723144 -1.45585,2.017976c0.726935,0.723281 1.27413,0.857144 1.98132,0.28573c1.639605,-1.445787 1.983355,-0.28573 2.165075,5.481968c0,2.891483 0.363495,5.195326 0.72699,5.195326c0.89089,0 0.547195,3.178125 -0.72699,4.47282c-0.70917,0.722506 -0.70917,1.428513 -0.18172,2.017156c1.27413,1.294832 0,5.044462 -1.619915,5.044462c-1.43605,0 -4.146395,2.740482 -4.146395,4.035269c0,1.581337 -2.32507,0 -2.872265,-1.731563c-0.545215,-1.580425 -0.545215,-1.580425 -0.91069,-0.437551c-0.343695,1.311969 1.61986,5.347238 3.25754,6.490796c1.07261,0.87451 -0.91069,2.320206 -2.34685,1.731563c-0.72897,-0.285639 -1.072665,-1.142783 -1.072665,-2.017201c0,-2.454707 -4.509945,-8.642818 -7.929405,-10.962933c-1.819345,-1.143786 -3.43728,-2.438481 -3.43728,-2.875212c0,-0.874418 -5.766255,-3.598538 -9.002015,-4.472911c-1.801635,-0.437551 -2.34685,-0.285684 -2.34685,0.874373c0,0.857144 -0.343695,1.142783 -1.072665,0.857144c-1.61788,-0.571505 -2.346795,0.723418 -0.910635,2.018113c1.9833,1.580425 1.639605,3.463763 -0.52547,2.740482c-1.455905,-0.436776 -1.63768,-0.285776 -1.09241,2.169159c0.18172,1.429333 0.547195,3.312672 0.547195,4.169816c0,0.874418 0.36344,1.445924 0.726935,1.445924c0.527505,0 0.70917,-0.285776 0.34375,-0.722506c-0.18172,-0.437642 0.183755,-0.857965 0.910635,-0.857965c0.54725,0 1.072665,0.572189 1.072665,1.143603c0,0.588734 -0.709115,1.160012 -1.9833,1.009148c-1.070685,0 -1.981375,-0.420414 -1.981375,-0.706144c0,-1.312061 -4.85562,-10.240518 -6.291725,-11.551667c-1.617935,-1.42947 -0.54527,-1.866201 -13.330295,4.909642c-1.98132,1.009057 -4.146395,3.178125 -5.238805,4.758687c-0.890945,1.580334 -2.32705,3.178125 -3.05404,3.463763c-0.728915,0.285776 -3.41946,2.589482 -5.76631,5.044325c-10.09448,10.81102 -8.454875,12.105807 -7.74763,34.183767c3.055965,16.729764 3.055965,16.729764 3.055965,16.729764c-7.202415,0 -7.202415,0 -7.202415,0c-5.94605,0 -5.94605,0 -5.94605,0c0.545215,-15.435935 0.545215,-15.435935 0.545215,-15.435935c0.36344,-1.293829 0.547195,-3.90054 0.72897,-5.346464c0.18172,-0.857919 -5.05714,-4.607549 -4.875365,-5.464602c0,-0.723281 5.42058,1.294832 5.42058,0.571414c0.89089,-10.525382 0,-18.898969 -2.34685,-23.355381c-0.545215,-2.740619 -5.057085,-11.550801 -5.764275,-11.550801c-0.181775,0 -1.455905,-0.857919 -2.71029,-1.866976c-2.16513,-1.882563 -3.05404,-2.017293 -15.131875,-2.589482c-12.966745,-0.587868 -12.966745,-0.587868 -12.966745,-0.587868c-3.073785,2.017293 -3.073785,2.017293 -3.073785,2.017293c-1.7996,1.311924 -3.60118,2.169114 -4.126705,2.169114c-1.09241,0 -5.60428,3.026987 -7.56591,4.758413c-0.18172,0 -0.36344,-0.150864 -0.36344,-0.285639c-0.181775,0 -0.181775,0 -0.181775,-0.151092c-0.18172,-0.420277 -0.36542,-0.857919 -0.728915,-1.294695c1.09241,-0.723281 1.9833,-1.160832 2.346795,-1.00892c0.545215,0.285639 1.072665,0 1.072665,-0.723418c0,-0.722506 -1.072665,-1.009011 -3.94493,-0.722506c-3.43926,0.436867 -4.33015,0.587868 -4.875365,2.302977c-0.890945,0.874373 -1.072665,2.169159 -0.545215,3.178216c-0.183755,1.294695 -0.183755,2.169068 0,2.169068c0.18172,0 0.36344,-0.285639 0.90871,-0.588643c0,0.151137 0.18172,0.303004 0.36542,0.437551c-1.80158,0.436776 -2.71227,1.731563 -2.52857,3.026258c-0.910635,0.588643 -1.80158,0.874373 -2.893935,1.311149c0,0 0,-0.151001 -0.16203,-0.151001c0.70917,-1.294695 1.072665,-2.740619 1.254385,-4.909687c0.365475,-2.438481 0.18172,-4.035269 -0.36344,-4.035269c-0.363495,0 -0.728915,0.588643 -0.728915,1.44565c0.181665,0.723418 -0.16203,1.445924 -0.88902,1.580562c-0.547195,0.151001 -0.910635,-0.134638 -0.910635,-0.857144c0,-1.732338 -0.707245,-1.732338 -2.327105,-0.151867c-0.726935,0.588643 -2.163095,1.294786 -3.41748,1.597791c-1.639605,0.420277 -2.165075,0.134501 -2.89399,-1.445924c-0.545215,-1.294695 -0.90871,-2.741348 -0.545215,-3.312763c0.18172,-0.723281 0.18172,-1.311149 -0.52547,-1.311149c-1.983355,0 -0.547195,-2.303843 1.7996,-2.741394zm15.495315,-33.157481c-1.09241,-0.151001 -1.983355,-0.571414 -2.346795,-1.160057c-0.181775,-0.857919 -0.363495,-0.857919 -0.363495,0c0,0.588643 -0.728915,1.009057 -1.43616,1.160057c-1.27413,0 -1.27413,0.151092 0.181775,0.723418c0.88891,0.285639 1.7996,0.722369 1.98132,0.722369c0.161975,0 1.072665,-0.436731 1.983355,-0.722369c1.61788,-0.723418 1.61788,-0.723418 0,-0.723418zm142.853534,23.220743c0.34375,0.285776 0.707245,-0.151867 0.707245,-0.874373c0,-0.572189 -0.363495,-1.143695 -0.707245,-1.143695c-0.54714,0 -0.910635,0.28573 -0.910635,0.706052c0,0.437642 0.363495,1.026285 0.910635,1.312015zm-1.27413,1.294786c-0.18172,-0.437642 -1.072665,-1.009011 -1.80158,-1.009011c-0.52547,0 -0.888965,0.571369 -0.52547,1.009011c0.161975,0.436776 0.89089,0.722552 1.61788,0.722552c0.70917,0 0.89089,-0.285776 0.70917,-0.722552zm-1.61788,6.490021c0.545215,0 1.27413,-0.151001 1.27413,-0.285639c0,-0.303004 -0.728915,-0.588643 -1.27413,-0.874418c-0.70917,-0.28573 -1.25444,-0.134638 -1.25444,0.285776c0,0.437551 0.54527,0.874282 1.25444,0.874282zm1.43616,-13.703415c0.726935,-0.285867 1.092355,-0.723372 0.90871,-1.143786c-0.54527,-1.025374 -3.59931,-1.025374 -3.59931,0c0,1.143786 1.07074,1.580562 2.6906,1.143786zm-9.89296,-10.812023c-0.91069,0.437642 -1.455905,1.294786 -1.27424,1.732338c0.91069,1.14292 1.98341,0.857144 2.892065,-1.009057c0.890945,-1.732338 0.52745,-2.017976 -1.617825,-0.723281zm-3.43926,22.211732c4.69359,3.884132 4.875365,4.035269 4.875365,2.740574c0,-0.722506 -0.363495,-1.311149 -0.91069,-1.311149c-0.525415,0 -1.436105,-0.723418 -1.98132,-1.580425c-0.525525,-0.858056 -1.61788,-1.732474 -2.508825,-1.732474c-1.637625,0 -1.637625,0.151912 0.52547,1.883475zm-3.78103,-6.793117c1.090485,0 1.617935,-0.285639 0.908765,-0.420322c-0.545215,-0.28573 -1.43616,-0.28573 -1.981375,0c-0.54725,0.134684 0,0.420322 1.07261,0.420322zm-5.21906,-19.605021c0.545215,0.436867 2.163095,1.008282 3.5992,1.294832c2.528625,0.436731 2.710345,0.436731 1.274185,-0.723281c-1.637625,-1.42947 -6.12777,-1.866201 -4.873385,-0.571551zm-10.985425,-23.926658c-0.545215,0.420277 -0.726935,1.294695 -0.545215,1.866064c0.363495,1.160148 1.43616,0.151137 1.43616,-1.580425c0,-0.874418 -0.181775,-1.009057 -0.890945,-0.285639zm5.400835,31.140189c1.43616,0.722415 1.983355,0.722415 2.712325,-0.28655c1.436105,-1.580516 0.525415,-2.302931 -2.16513,-1.29465c-2.165075,0.706827 -2.165075,0.706827 -0.547195,1.5812zm-3.5992,-7.21353c2.71029,-1.580289 2.71029,-1.580289 0.545215,-1.580289c-1.455905,0 -2.52857,0.571278 -3.073785,1.580289c-0.34375,1.008282 -0.70917,1.580562 -0.52745,1.580562c0,0 1.43616,-0.85801 3.05602,-1.580562zm-3.96473,23.37188c1.252405,1.580562 3.417535,1.580562 2.71029,-0.151092c-0.18172,-0.572189 -0.36542,-1.294695 -0.36542,-1.446608c0,-0.134638 -0.72699,-0.134638 -1.61788,0.151912c-1.455905,0.28573 -1.455905,0.722506 -0.72699,1.445787zm-5.584535,-5.918698c1.436105,1.580516 2.165075,1.731517 3.782955,0.571505c1.072665,-0.722506 1.072665,-0.722506 0,-0.857144c-0.545215,0 -1.981375,-0.151912 -3.23576,-0.437642c-1.80158,-0.571414 -1.80158,-0.571414 -0.547195,0.723281zm-0.18172,-15.721619c0.910635,0 1.9833,-2.303706 1.43616,-3.026212c-0.707245,-0.723281 -2.16315,0.436731 -2.16315,1.731517c0,0.723327 0.363495,1.294695 0.72699,1.294695zm-8.81837,9.802875c-1.09241,0.588643 -0.910635,0.723418 0.525525,0.723418c0.910635,0 1.98132,-0.286642 2.346795,-0.723418c0.54516,-1.143558 -1.25444,-1.143558 -2.87232,0zm0.181775,12.694586c0.161975,0.151912 0.70719,-0.151092 1.254385,-0.857144c0.54516,-0.588643 2.16315,-1.311924 3.41748,-1.597699c1.61788,-0.436867 2.34685,-1.142874 2.34685,-2.169159c0,-2.437478 -2.52857,-1.715109 -5.21917,1.446653c-1.092355,1.596925 -1.98132,2.891711 -1.799545,3.17735zm-1.9833,-6.641204c1.617825,-1.580334 1.617825,-1.866976 0.34364,-2.303752c-1.436105,-0.571505 -2.50679,0.723418 -2.50679,3.026258c-0.1837,1.732338 -0.1837,1.732338 2.16315,-0.722506zm-2.892065,-17.016269c0.18172,1.160012 0.545215,1.009011 1.617825,-1.143695c1.27424,-2.302977 1.27424,-2.605981 0.181775,-2.605981c-0.70719,0 -1.43616,0.436867 -1.61788,1.160194c-0.363495,0.571369 -0.363495,1.883429 -0.18172,2.589482zm-0.890945,-11.820214c0,0.587868 0.343695,2.017293 0.70917,3.026258c0.545215,2.018067 0.545215,2.018067 1.09241,0.28573c0.70719,-1.731426 0,-4.320908 -1.09241,-4.320908c-0.52745,0 -0.70917,0.436639 -0.70917,1.00892zm-12.62107,4.757775c-0.89089,1.009057 -0.89089,2.018113 -0.1837,5.044325c0.365475,2.169114 1.276165,4.338273 1.80158,4.758687c0.91069,0.723281 1.09241,0 1.27413,-4.472136c0,-5.464739 -0.910635,-7.19694 -2.89201,-5.330876zm1.61788,15.284843c0.181775,0.285776 0.545215,-0.28573 0.363495,-1.143649c0,-0.874418 -0.18172,-1.009057 -0.545215,-0.436776c-0.16203,0.571414 -0.16203,1.294695 0.18172,1.580425zm6.493245,-13.552506c-0.18172,0.285776 -0.18172,2.303843 0.363495,4.472136c0.547195,3.750405 0.70917,3.901406 0.890945,1.160832c0.18172,-4.472911 -0.181775,-6.641979 -1.25444,-5.632968zm-6.12975,40.673925c1.09241,-1.732338 2.892065,-4.624049 4.14645,-6.356249c1.436105,-1.866338 2.346795,-4.321044 2.71029,-6.775888c0.52745,-3.884268 0.52745,-3.884268 0.52745,-3.884268c-2.165075,2.152706 -2.165075,2.152706 -2.165075,2.152706c-1.072665,1.160148 -1.799655,2.454844 -1.799655,2.891711c0,1.143603 -3.41946,8.356997 -4.492125,9.651784c-0.545215,0.722369 -1.455905,2.320206 -1.61788,3.463763c-0.91069,3.312079 0.70917,2.740574 2.690545,-1.143558zm-12.785025,14.847201c0.547195,2.875121 0.547195,2.875121 2.34685,-3.312808c1.072665,-3.329308 2.690545,-8.659181 3.782955,-11.972035c1.436105,-4.186406 1.9833,-7.65017 1.9833,-12.543358c0,-6.355611 -0.1837,-6.490249 -1.619805,-5.766832c-3.25556,1.866155 -5.05714,7.061481 -5.78413,17.149996c-0.343695,5.196329 -0.70917,10.391655 -1.07261,11.53535c-0.181775,1.160057 0,3.329217 0.36344,4.909687zm0.365475,-36.907932c0.70719,1.429425 1.43616,2.589482 1.43616,2.589482c0.18172,0 1.07063,-0.874418 1.7996,-2.017976c0.910635,-1.008236 2.346795,-2.168293 2.892065,-2.588707c2.145275,-1.311924 2.69049,-5.347193 0.89089,-8.087766c-1.43616,-2.454844 -5.400835,-5.196238 -6.129805,-4.321819c-0.36344,0.28573 -0.88891,3.027124 -1.254385,6.204474c-0.726935,4.75855 -0.726935,6.205112 0.365475,8.222313zm-1.09241,-33.023527c0.363495,0.28655 0.726935,0.134638 0.726935,-0.302093c0,-0.57228 -0.36344,-1.143786 -0.726935,-1.42947c-0.547195,-0.302959 -0.890945,-0.151092 -0.890945,0.420414c0,0.436776 0.34375,1.009057 0.890945,1.311149zm-58.36028,38.773905c2.50877,0.151867 2.50877,0.151867 2.50877,0.151867c2.52857,0 5.05714,-1.866976 5.05714,-3.463763c0,-1.009057 -0.18172,-1.009057 -7.56591,3.311897zm1.072665,-4.035315c0,0.437779 0.363495,0.874418 0.91069,0.874418c0.888965,0 3.41748,-2.589482 2.872265,-3.026212c-0.547195,-0.588643 -3.782955,1.29465 -3.782955,2.151794zm1.9833,-9.937377c2.710345,2.875895 3.96473,3.161625 5.400835,1.29465c1.455905,-1.731426 0.181775,-2.891574 -4.148375,-3.311988c-3.599255,-0.437642 -3.599255,-0.437642 -1.25246,2.017338zm-1.9833,-8.087037c0,0.302093 1.27413,1.008145 2.71029,1.596788c6.655275,2.740619 7.929405,2.740619 7.74763,0.134775c0,-1.580562 -2.71029,-5.044417 -3.782955,-5.044417c-1.27413,0 -6.674965,2.740574 -6.674965,3.312854zm9.730985,20.479394c1.981375,0 2.163095,-0.436867 0.545215,-1.14292c-0.728915,-0.151867 -1.43616,0 -1.61788,0.420414c-0.365475,0.436639 0.18172,0.722506 1.072665,0.722506zm1.43616,-33.880808c-1.25444,-0.723372 -2.8743,-1.009011 -3.601235,-0.723372c-1.254385,0.57228 -1.072665,0.723372 0.726935,1.160012c0.890945,0.286642 2.712325,0.572326 3.601235,0.706964c1.072665,0 1.072665,-0.28655 -0.726935,-1.143603zm-0.161975,5.195326c1.07063,0 1.254385,-0.151092 0.52547,-0.587868c-0.52547,-0.134547 -1.25444,-0.134547 -1.617935,0.151137c-0.18172,0.285639 0.363495,0.571505 1.092465,0.436731zm1.07063,3.3129c-2.528515,0 -2.528515,0.134501 -1.07063,1.29465c1.7996,1.294695 2.32507,1.445696 3.05404,0.571414c1.25433,-1.14292 0.36344,-1.866064 -1.98341,-1.866064zm3.60129,-16.293125c-0.72897,-0.723281 -0.91069,0.571505 -0.54527,2.151931c0.18172,1.009057 0.90871,1.883338 1.274185,1.883338c0.70719,0 0.18172,-3.178125 -0.728915,-4.035269zm5.764275,19.03347c-0.36344,0.134775 0.547195,1.009057 1.61986,1.732429c1.09241,0.722506 1.98132,1.008191 1.98132,0.571414c0,-1.00892 -3.053985,-2.892349 -3.60118,-2.303843zm-4.509945,1.009057c-1.61788,1.009148 -0.70719,3.598493 1.63768,4.03536c1.254385,0.285684 3.23774,1.445833 4.492125,2.589391c1.09241,1.160148 1.98132,1.597791 1.98132,1.160148c0,-1.445787 -7.200435,-8.373542 -8.111125,-7.784899zm7.38419,11.972171c-1.07261,-2.321072 -2.32705,-3.463991 -4.6739,-4.187272c-1.7996,-0.571414 -3.60118,-0.874282 -4.146395,-0.722415c-0.547195,0.151001 1.61788,2.017201 4.693645,4.186315c5.764275,3.74963 5.764275,3.74963 4.12665,0.723372zm9.56703,-22.211823c-0.363495,0 -0.72897,0.571505 -0.72897,1.14292c0,0.723281 0.365475,1.160148 0.72897,1.160148c0.52547,0 0.890945,-0.436867 0.890945,-1.160148c0,-0.571414 -0.365475,-1.14292 -0.890945,-1.14292zm-1.637625,11.820214c0,1.00892 3.073785,0.28573 4.32817,-1.009057c1.799655,-2.169068 1.61788,-2.740574 -0.728915,-2.740574c-1.61788,0 -3.599255,2.018159 -3.599255,3.74963zm5.23886,-31.140326c-0.547195,1.866201 -0.91069,3.446626 -0.728915,3.598538c0.54714,0.571505 1.983355,-3.749539 1.983355,-5.481876c0,-0.722506 -0.54725,0.151912 -1.25444,1.883338zm9.365565,29.122212c-0.91069,0 -1.617935,0.286642 -1.617935,0.857919c0,0.436867 0.52547,0.723418 1.070685,0.723418c0.728915,0 1.43616,-0.28655 1.61986,-0.723418c0.363495,-0.571278 -0.1837,-0.857919 -1.07261,-0.857919zm-2.16513,27.10492c1.072665,2.606756 2.690545,5.044325 3.601235,5.632968c0.91069,0.436867 2.71029,2.454935 3.782955,4.472911c1.072665,2.017293 2.165075,3.597763 2.34685,3.597763c0.88891,0 -0.91069,-13.266001 -2.165075,-17.302044c-1.092465,-3.462989 -1.436215,-6.641204 -1.25444,-11.68553c0.161975,-3.749539 0,-7.062393 -0.36344,-7.348077c-0.181775,-0.28573 -1.43616,-0.28573 -2.52857,0c-1.983355,0.571414 -2.165075,1.009057 -2.165075,4.187181c0,2.437615 -0.36355,3.74963 -1.25444,4.320908c-2.528515,1.294832 -2.346795,8.642864 0,14.12392zm-5.21906,-19.3192c-0.363495,-2.169114 -0.726935,-2.454844 -2.71029,-2.454844c-2.34685,0 -2.34685,0.151092 -2.165075,3.17735c0,1.866976 0.36542,4.036044 0.54714,5.04428c0.181775,1.009057 0.890945,2.017976 1.617935,2.169114c1.436105,0.723372 3.053985,-4.320908 2.71029,-7.9359zm-2.71029,14.56065c-1.617935,-1.731563 -2.71029,-3.597763 -2.87232,-4.035269c0,-0.571414 -0.910635,-2.017201 -1.981375,-3.311988c-1.09241,-1.294695 -2.346795,-2.892395 -2.89399,-3.4639c-1.7996,-2.017976 -1.43616,-0.285639 0.547195,4.186406c1.254385,3.026987 3.417535,5.767606 5.94605,8.071313c4.673845,3.900631 5.219115,3.177487 1.25444,-1.446562zm-2.87232,7.078755c1.96163,0 1.799655,-0.151001 -0.910635,-2.454707c-1.799655,-1.445924 -3.05404,-3.026349 -3.05404,-3.749676c0,-0.571369 -2.34685,-2.605936 -5.057085,-4.472136c-2.6906,-1.883293 -5.21917,-3.749493 -5.58261,-4.321683c-0.365475,-0.722506 -0.547195,-0.722506 -0.547195,0.134638c0,0.874418 -0.888965,1.00892 -3.782955,0.571414c-1.981375,-0.285776 -3.599255,-0.285776 -3.599255,-0.133863c0,0.28573 0.726935,2.017293 1.455905,3.749493c1.25444,2.875257 1.7996,3.463991 5.76433,4.60682c2.508825,0.723281 6.473445,2.454798 9.002015,3.749493c2.34685,1.312061 5.219115,2.320206 6.311525,2.320206zm-28.11831,4.893188c0.728915,0 1.80158,-0.285639 2.528515,-0.723144c1.25444,-1.008282 0.183755,-1.008282 -2.163095,0c-1.072665,0.437505 -1.254385,0.572144 -0.36542,0.723144zm-1.981375,-3.598493c1.799655,-0.587777 7.56591,-1.160057 12.80477,-1.160057c9.891035,-0.134638 11.874335,-0.571278 7.909605,-1.445787c-1.25433,-0.285639 -4.12665,-1.009057 -6.473445,-1.731563c-4.14645,-1.294695 -12.62305,-0.857919 -13.512015,0.588005c-0.1837,0.286414 -1.09241,0.437505 -1.9833,0.286414c-1.799655,-0.437551 -3.601235,0.722597 -4.14645,3.026349c-0.728915,1.866064 0.545215,2.017976 5.400835,0.436639zm-14.402905,3.312854c0.363495,1.160148 2.165075,1.294695 3.601235,0.285639c0.88891,-0.571369 0.88891,-0.857008 0,-1.731426c-0.728915,-0.858056 -1.254385,-0.858056 -2.346795,-0.134638c-0.728915,0.420414 -1.25444,1.14292 -1.25444,1.580425zm-5.76433,10.088651c0.707245,0 1.07074,0.436867 0.707245,1.294786c-0.16203,0.588643 -0.707245,1.160057 -1.072665,1.160057c-0.545215,0 -0.888965,-0.571414 -0.888965,-1.160057c0,-0.706052 0.52547,-1.294786 1.254385,-1.294786z" stroke-width="1.5" stroke="#ffffff" fill="#000000"/>
 </g>
</svg>