<svg width="580" height="400" xmlns="http://www.w3.org/2000/svg">
 <!-- Created with Method Draw - http://github.com/duopixel/Method-Draw/ -->
 <g>
  <title>background</title>
  <rect fill="#fff" id="canvas_background" height="402" width="582" y="-1" x="-1"/>
  <g display="none" overflow="visible" y="0" x="0" height="100%" width="100%" id="canvasGrid">
   <rect fill="url(#gridpattern)" stroke-width="0" y="0" x="0" height="100%" width="100%"/>
  </g>
 </g>
 <g>
  <title>Layer 1</title>
  <path id="svg_174" d="m303.283589,127.470743c-2.702744,0.732169 -5.169054,1.708274 -7.655067,2.578288c-0.847224,0.29626 -1.809711,0.767172 -2.594871,0.911152c-2.000829,0.365543 -5.131619,-0.273887 -7.682158,-0.340644c-6.374871,-0.165631 -10.502135,0.1779 -15.742612,0.756707c-2.452518,0.270278 -4.991728,0.523596 -7.144269,0.985848c-1.838773,0.395133 -3.946982,1.278138 -6.004457,2.020772c-3.25147,1.173852 -5.466075,2.279142 -8.001345,3.694404c-4.2376,2.363942 -6.905372,5.339889 -10.006115,8.60957c-1.354081,1.42717 -3.304175,3.553671 -3.401212,5.242459c-1.792471,1.990099 -4.515903,3.205088 -5.199101,6.118247c0.955098,1.703583 3.430274,0.188726 4.921783,-0.378534c1.233401,-0.470551 2.560391,-1.032759 3.653409,-1.258291c5.680837,-1.17313 13.597459,0.50375 19.128554,-0.571229c1.960438,-0.380699 3.658827,-1.149314 5.606458,-1.474803c1.849609,-0.309972 3.264277,0.238884 4.582893,0.656029c0.700438,0.222285 1.438311,0.523236 2.074715,0.76248c4.12086,1.559964 8.23975,3.213749 13.772323,3.83658c4.44054,0.499058 8.298366,-0.45323 11.907936,-0.967805c0.916185,-0.130989 2.099836,-0.083357 2.794855,-0.65639c-2.881056,-0.476686 -5.272002,-1.289685 -8.280634,-2.157535c-3.951908,-1.138849 -7.021619,-1.909268 -8.515098,-4.195627c1.768827,-0.339201 3.817436,-0.087687 5.658671,0.148671c2.01068,0.256927 4.006091,0.498337 5.935497,0.730725c8.146654,0.9826 14.282135,2.632055 20.483621,4.771908c3.012572,1.038171 5.78871,2.484828 8.342205,3.699095c5.229641,2.489879 9.693824,5.58166 13.904332,8.949854c1.905762,1.524961 3.608092,3.43459 5.674926,5.254728c0.903378,0.795679 1.811681,1.683375 2.777123,2.665975c0.922588,0.933524 2.33036,2.077786 2.525418,2.894395c0.219687,0.901769 -0.433956,1.890504 -0.762995,2.875991c-0.568921,1.711882 -0.988593,3.548259 -0.797967,5.305969c0.249242,2.273368 0.942783,4.487557 2.396857,6.209904c0.630985,-0.411011 0.888601,-1.134519 1.213698,-1.797043c1.593964,-1.492484 3.714488,-2.983164 3.767193,-5.466909c4.353847,1.648372 12.810821,1.510166 17.888257,1.467225c1.526482,-0.012991 3.081533,0.105369 4.345966,-0.329458c-2.666787,-1.132354 -4.624269,-2.565298 -6.942315,-4.028192c-3.507115,-2.210219 -6.407874,-4.072216 -11.577913,-5.254728c-1.675731,-0.383225 -3.5943,-0.590715 -4.512455,-1.300872c-0.705856,-0.543443 -0.920618,-1.747246 -1.278718,-2.906664c-0.962979,-3.134722 -2.215098,-6.460696 -3.332252,-9.098886c-3.352447,-7.930086 -8.469289,-14.977888 -15.277131,-20.451293c-3.449977,-2.775674 -7.569852,-5.036052 -12.011869,-7.549387c-0.759054,-0.871819 -2.18111,-2.047836 -2.474683,-3.377215c-0.300469,-1.368712 0.24136,-2.569989 1.39595,-3.48944c2.525911,-1.350309 6.494566,-1.499701 8.210688,-3.520834c-2.243667,-1.183234 -5.027686,-1.530013 -7.759492,-1.72343c-5.901509,-0.418228 -11.430634,-0.093461 -16.008601,1.148231z" stroke-width="1.5" stroke="#ffffff" fill="#000000"/>
  <rect id="svg_175" height="235" width="884" y="210.4375" x="-121.5" stroke-width="1.5" stroke="#ffffff" fill="#000000"/>
 </g>
</svg>