<svg width="580" height="400" xmlns="http://www.w3.org/2000/svg">
 <!-- Created with Method Draw - http://github.com/duopixel/Method-Draw/ -->
 <g>
  <title>background</title>
  <rect fill="#fff" id="canvas_background" height="402" width="582" y="-1" x="-1"/>
  <g display="none" overflow="visible" y="0" x="0" height="100%" width="100%" id="canvasGrid">
   <rect fill="url(#gridpattern)" stroke-width="0" y="0" x="0" height="100%" width="100%"/>
  </g>
 </g>
 <g>
  <title>Layer 1</title>
  <rect stroke="#000000" id="svg_105" height="272.000017" width="177.000001" y="135.437483" x="37.5" stroke-opacity="null" stroke-width="1.5" fill="#cccccc"/>
  <rect id="svg_106" height="29" width="40" y="151.4375" x="50.5" stroke-opacity="null" stroke-width="1.5" stroke="#000000" fill="#56ffff"/>
  <rect id="svg_107" height="29" width="40" y="151.4375" x="104.5" stroke-opacity="null" stroke-width="1.5" stroke="#000000" fill="#56ffff"/>
  <rect id="svg_108" height="29" width="40" y="151.4375" x="156.5" stroke-opacity="null" stroke-width="1.5" stroke="#000000" fill="#56ffff"/>
  <rect id="svg_109" height="29" width="40" y="195.4375" x="51.5" stroke-opacity="null" stroke-width="1.5" stroke="#000000" fill="#56ffff"/>
  <rect id="svg_110" height="29" width="40" y="195.4375" x="105.5" stroke-opacity="null" stroke-width="1.5" stroke="#000000" fill="#56ffff"/>
  <rect id="svg_111" height="29" width="40" y="195.4375" x="157.5" stroke-opacity="null" stroke-width="1.5" stroke="#000000" fill="#56ffff"/>
  <rect id="svg_112" height="29" width="40" y="238.4375" x="53.5" stroke-opacity="null" stroke-width="1.5" stroke="#000000" fill="#56ffff"/>
  <rect id="svg_113" height="29" width="40" y="238.4375" x="107.5" stroke-opacity="null" stroke-width="1.5" stroke="#000000" fill="#56ffff"/>
  <rect id="svg_114" height="29" width="40" y="238.4375" x="159.5" stroke-opacity="null" stroke-width="1.5" stroke="#000000" fill="#56ffff"/>
  <rect id="svg_115" height="29" width="40" y="282.4375" x="54.5" stroke-opacity="null" stroke-width="1.5" stroke="#000000" fill="#56ffff"/>
  <rect id="svg_116" height="29" width="40" y="282.4375" x="108.5" stroke-opacity="null" stroke-width="1.5" stroke="#000000" fill="#56ffff"/>
  <rect id="svg_117" height="29" width="40" y="282.4375" x="160.5" stroke-opacity="null" stroke-width="1.5" stroke="#000000" fill="#56ffff"/>
  <rect id="svg_118" height="29" width="40" y="324.4375" x="54.5" stroke-opacity="null" stroke-width="1.5" stroke="#000000" fill="#56ffff"/>
  <rect id="svg_119" height="29" width="40" y="324.4375" x="108.5" stroke-opacity="null" stroke-width="1.5" stroke="#000000" fill="#56ffff"/>
  <rect id="svg_120" height="29" width="40" y="324.4375" x="160.5" stroke-opacity="null" stroke-width="1.5" stroke="#000000" fill="#56ffff"/>
  <rect stroke="#000000" id="svg_125" height="272.000017" width="177.000001" y="135.437483" x="241.5" stroke-opacity="null" stroke-width="1.5" fill="#cccccc"/>
  <rect id="svg_126" height="29" width="40" y="151.4375" x="254.5" stroke-opacity="null" stroke-width="1.5" stroke="#000000" fill="#56ffff"/>
  <rect id="svg_127" height="29" width="40" y="151.4375" x="308.5" stroke-opacity="null" stroke-width="1.5" stroke="#000000" fill="#56ffff"/>
  <rect id="svg_128" height="29" width="40" y="151.4375" x="360.5" stroke-opacity="null" stroke-width="1.5" stroke="#000000" fill="#56ffff"/>
  <rect id="svg_129" height="29" width="40" y="195.4375" x="255.5" stroke-opacity="null" stroke-width="1.5" stroke="#000000" fill="#56ffff"/>
  <rect id="svg_130" height="29" width="40" y="195.4375" x="309.5" stroke-opacity="null" stroke-width="1.5" stroke="#000000" fill="#56ffff"/>
  <rect id="svg_131" height="29" width="40" y="195.4375" x="361.5" stroke-opacity="null" stroke-width="1.5" stroke="#000000" fill="#56ffff"/>
  <rect id="svg_132" height="29" width="40" y="238.4375" x="257.5" stroke-opacity="null" stroke-width="1.5" stroke="#000000" fill="#56ffff"/>
  <rect id="svg_133" height="29" width="40" y="238.4375" x="311.5" stroke-opacity="null" stroke-width="1.5" stroke="#000000" fill="#56ffff"/>
  <rect id="svg_134" height="29" width="40" y="238.4375" x="363.5" stroke-opacity="null" stroke-width="1.5" stroke="#000000" fill="#56ffff"/>
  <rect id="svg_135" height="29" width="40" y="282.4375" x="258.5" stroke-opacity="null" stroke-width="1.5" stroke="#000000" fill="#56ffff"/>
  <rect id="svg_136" height="29" width="40" y="282.4375" x="312.5" stroke-opacity="null" stroke-width="1.5" stroke="#000000" fill="#56ffff"/>
  <rect id="svg_137" height="29" width="40" y="282.4375" x="364.5" stroke-opacity="null" stroke-width="1.5" stroke="#000000" fill="#56ffff"/>
  <rect id="svg_138" height="29" width="40" y="324.4375" x="258.5" stroke-opacity="null" stroke-width="1.5" stroke="#000000" fill="#56ffff"/>
  <rect id="svg_139" height="29" width="40" y="324.4375" x="312.5" stroke-opacity="null" stroke-width="1.5" stroke="#000000" fill="#56ffff"/>
  <rect id="svg_140" height="29" width="40" y="324.4375" x="364.5" stroke-opacity="null" stroke-width="1.5" stroke="#000000" fill="#56ffff"/>
  <rect stroke="#000000" id="svg_141" height="272.000017" width="177.000001" y="135.437483" x="449.5" stroke-opacity="null" stroke-width="1.5" fill="#cccccc"/>
  <rect id="svg_142" height="29" width="40" y="151.4375" x="462.5" stroke-opacity="null" stroke-width="1.5" stroke="#000000" fill="#56ffff"/>
  <rect id="svg_143" height="29" width="40" y="151.4375" x="516.5" stroke-opacity="null" stroke-width="1.5" stroke="#000000" fill="#56ffff"/>
  <rect id="svg_144" height="29" width="40" y="151.4375" x="568.5" stroke-opacity="null" stroke-width="1.5" stroke="#000000" fill="#56ffff"/>
  <rect id="svg_145" height="29" width="40" y="195.4375" x="463.5" stroke-opacity="null" stroke-width="1.5" stroke="#000000" fill="#56ffff"/>
  <rect id="svg_146" height="29" width="40" y="195.4375" x="517.5" stroke-opacity="null" stroke-width="1.5" stroke="#000000" fill="#56ffff"/>
  <rect id="svg_147" height="29" width="40" y="195.4375" x="569.5" stroke-opacity="null" stroke-width="1.5" stroke="#000000" fill="#56ffff"/>
  <rect id="svg_148" height="29" width="40" y="238.4375" x="465.5" stroke-opacity="null" stroke-width="1.5" stroke="#000000" fill="#56ffff"/>
  <rect id="svg_149" height="29" width="40" y="238.4375" x="519.5" stroke-opacity="null" stroke-width="1.5" stroke="#000000" fill="#56ffff"/>
  <rect id="svg_150" height="29" width="40" y="238.4375" x="571.5" stroke-opacity="null" stroke-width="1.5" stroke="#000000" fill="#56ffff"/>
  <rect id="svg_151" height="29" width="40" y="282.4375" x="466.5" stroke-opacity="null" stroke-width="1.5" stroke="#000000" fill="#56ffff"/>
  <rect id="svg_152" height="29" width="40" y="282.4375" x="520.5" stroke-opacity="null" stroke-width="1.5" stroke="#000000" fill="#56ffff"/>
  <rect id="svg_153" height="29" width="40" y="282.4375" x="572.5" stroke-opacity="null" stroke-width="1.5" stroke="#000000" fill="#56ffff"/>
  <rect id="svg_154" height="29" width="40" y="324.4375" x="466.5" stroke-opacity="null" stroke-width="1.5" stroke="#000000" fill="#56ffff"/>
  <rect id="svg_155" height="29" width="40" y="324.4375" x="520.5" stroke-opacity="null" stroke-width="1.5" stroke="#000000" fill="#56ffff"/>
  <rect id="svg_156" height="29" width="40" y="324.4375" x="572.5" stroke-opacity="null" stroke-width="1.5" stroke="#000000" fill="#56ffff"/>
  <path id="svg_164" d="m159.790992,49.272104c-0.379565,-9.448367 -13.618963,-17.040288 -29.903135,-17.045104c-10.883619,0.002408 -20.389251,3.399871 -25.612398,8.468375c-2.454797,-0.787364 -5.280907,-1.244854 -8.292674,-1.244854c-9.402489,0.004816 -17.051553,4.34856 -17.393987,9.79028c-9.87282,1.892563 -17.018547,7.283718 -17.026799,13.690982c0,7.974768 11.085779,14.447044 24.754251,14.447044l0,-0.004816l65.491495,0c13.664346,0 24.754251,-6.472276 24.754251,-14.447044c-0.008251,-6.349476 -7.030207,-11.71896 -16.771005,-13.654864zm-7.983246,23.291042l-65.495621,0c-9.11369,-0.014447 -16.490457,-4.31485 -16.506959,-9.63377c-0.008251,-4.77234 5.982277,-8.711567 13.821123,-9.465221c1.093313,-0.103537 2.071106,-0.459898 2.71059,-0.996846c0.639485,-0.536948 0.87465,-1.196697 0.67249,-1.837182c-0.11552,-0.35636 -0.185657,-0.693458 -0.185657,-1.020924c0.016503,-2.949605 4.10508,-5.335775 9.159073,-5.34059c2.669333,0 5.020987,0.66938 6.737282,1.760131c0.96129,0.618815 2.421791,0.90294 3.824532,0.744023c1.410992,-0.158917 2.582693,-0.739207 3.08603,-1.51694c3.090156,-4.796418 10.982636,-8.215552 20.261354,-8.210736c11.960429,0.009631 21.635215,5.658425 21.664095,12.638755c0,0.387662 -0.037131,0.784956 -0.111394,1.196697c-0.20216,1.244854 1.258341,2.369315 3.362452,2.59806c7.673818,0.828297 13.507569,4.733815 13.495192,9.445959c-0.016503,5.321328 -7.380892,9.624139 -16.494582,9.638586zm-59.439081,23.363277c0,-2.684742 0.08664,-13.062535 0.08664,-13.07939c0.008251,-0.984807 -1.01905,-1.875708 -2.590945,-2.244107c-1.567769,-0.365992 -3.362452,-0.142063 -4.534154,0.577882c-0.024754,0.019263 -4.27836,2.643809 -8.585599,5.639163c-2.157746,1.509716 -4.323742,3.098891 -6.035911,4.565266c-1.646158,1.560281 -3.106658,2.566758 -3.34595,4.53878c0.012377,4.030725 5.594461,7.295757 12.509148,7.302981c6.898184,-0.009631 12.496771,-3.274663 12.496771,-7.300573zm-16.742125,0.108353c0.375439,-0.840336 4.459891,-4.139078 8.222537,-6.655271c0.103143,-0.069827 0.210411,-0.146878 0.313554,-0.214298c-0.020629,2.706413 -0.041257,5.523586 -0.041257,6.761216c0,1.365246 -1.901952,2.47526 -4.245354,2.480076c-2.285642,-0.004816 -4.142211,-1.057042 -4.24948,-2.371723zm47.255864,-0.108353c0,-2.684742 0.08664,-13.060127 0.08664,-13.074574c0.008251,-0.987215 -1.01905,-1.875708 -2.590945,-2.248923c-1.571895,-0.365992 -3.358327,-0.139655 -4.538279,0.582697c-0.024754,0.019263 -4.270108,2.634178 -8.581474,5.639163c-2.15362,1.500085 -4.319617,3.094075 -6.035911,4.56045c-1.646158,1.562689 -3.106658,2.571574 -3.337698,4.546003c0,4.025909 5.586209,7.290941 12.496771,7.290941c6.90231,-0.002408 12.500897,-3.269848 12.500897,-7.295757zm-16.750376,0.113169c0.379565,-0.840336 4.459891,-4.141486 8.222537,-6.657679c0.103143,-0.072235 0.206285,-0.14447 0.309428,-0.214298c-0.020629,2.704005 -0.045383,5.523586 -0.045383,6.758809c-0.008251,1.367653 -1.901952,2.472852 -4.241228,2.477668c-2.285642,-0.004816 -4.13396,-1.054634 -4.245354,-2.364499zm44.994976,-15.439074c-1.567769,-0.3684 -3.366578,-0.14447 -4.534154,0.577882c-0.037131,0.019263 -4.27836,2.641401 -8.581474,5.639163c-2.157746,1.5049 -4.327868,3.094075 -6.031786,4.565266c-1.658535,1.562689 -3.110784,2.569166 -3.350075,4.541187c0,4.025909 5.586209,7.293349 12.500897,7.293349c6.90231,0 12.488519,-3.26744 12.488519,-7.293349c0,-2.684742 0.090766,-13.062535 0.090766,-13.076982c0.012377,-0.987215 -1.014924,-1.878116 -2.582693,-2.246515zm-5.742986,15.323498c-0.016503,1.367653 -1.910203,2.472852 -4.253605,2.477668c-2.281517,-0.004816 -4.13396,-1.054634 -4.241228,-2.364499c0.379565,-0.840336 4.459891,-4.141486 8.222537,-6.657679c0.103143,-0.06742 0.206285,-0.142063 0.305302,-0.21189c-0.016503,2.704005 -0.033006,5.518771 -0.033006,6.756401z" stroke-opacity="null" stroke-width="1.5" stroke="#000000" fill="#aaffff"/>
  <path id="svg_165" d="m304.79433,16.957637c-0.399369,-11.444501 -14.329519,-20.64035 -31.463299,-20.646183c-11.45146,0.002917 -21.453039,4.118154 -26.948698,10.25747c-2.582873,-0.953708 -5.556433,-1.507851 -8.725335,-1.507851c-9.893055,0.005833 -17.9412,5.26727 -18.3015,11.85865c-10.387924,2.2924 -17.906472,8.822532 -17.915154,16.583444c0,9.659579 11.664167,17.499237 26.045778,17.499237l0,-0.005833l68.908446,0c14.377269,0 26.045778,-7.839658 26.045778,-17.499237c-0.008682,-7.690915 -7.397001,-14.194798 -17.646014,-16.539696zm-8.399763,28.211687l-68.912786,0c-9.589187,-0.017499 -17.350829,-5.226439 -17.368193,-11.669075c-0.008682,-5.780581 6.294396,-10.55204 14.542226,-11.464917c1.150355,-0.125411 2.179163,-0.557059 2.852013,-1.207447c0.672849,-0.650388 0.920284,-1.44952 0.707577,-2.22532c-0.121547,-0.431648 -0.195343,-0.839963 -0.195343,-1.236613c0.017364,-3.572761 4.319258,-6.463052 9.636938,-6.468885c2.808603,0 5.282952,0.810798 7.088792,2.13199c1.011444,0.749551 2.548145,1.093702 4.024073,0.901211c1.484609,-0.192492 2.717443,-0.895378 3.24704,-1.83742c3.251381,-5.809747 11.555643,-9.951233 21.318469,-9.9454c12.584452,0.011666 22.76401,6.853868 22.794396,15.308916c0,0.469563 -0.039069,0.950792 -0.117206,1.44952c-0.212707,1.507851 1.323994,2.869875 3.537885,3.146946c8.074191,1.00329 14.212313,5.733917 14.19929,11.441585c-0.017364,6.445552 -7.765983,11.657409 -17.35517,11.674908zm-62.540253,28.299183c0,-3.251942 0.09116,-15.822227 0.09116,-15.842643c0.008682,-1.192865 -1.072218,-2.271984 -2.726125,-2.718215c-1.649566,-0.443314 -3.537885,-0.172076 -4.770718,0.699969c-0.026046,0.023332 -4.501579,3.20236 -9.033544,6.830536c-2.270324,1.82867 -4.549329,3.753586 -6.350829,5.529759c-1.732044,1.889918 -3.268745,3.109031 -3.520521,5.497677c0.013023,4.882287 5.886346,8.837115 13.1618,8.845864c7.25809,-0.011666 13.148777,-3.966494 13.148777,-8.842948zm-17.615628,0.131244c0.395028,-1.017872 4.692581,-5.013531 8.651539,-8.061315c0.108524,-0.08458 0.221389,-0.177909 0.329913,-0.259572c-0.021705,3.27819 -0.04341,6.690542 -0.04341,8.189643c0,1.653678 -2.001184,2.998203 -4.466851,3.004036c-2.404893,-0.005833 -4.358327,-1.280361 -4.471192,-2.872791zm49.721389,-0.131244c0,-3.251942 0.09116,-15.819311 0.09116,-15.83681c0.008682,-1.195781 -1.072218,-2.271984 -2.726125,-2.724048c-1.653907,-0.443314 -3.533544,-0.169159 -4.775059,0.705803c-0.026046,0.023332 -4.492897,3.190694 -9.029203,6.830536c-2.265983,1.817004 -4.544988,3.747753 -6.350829,5.523926c-1.732044,1.892834 -3.268745,3.114864 -3.511839,5.506427c0,4.876454 5.877664,8.831282 13.148777,8.831282c7.262431,-0.002917 13.153118,-3.960661 13.153118,-8.837115zm-17.624309,0.137077c0.399369,-1.017872 4.692581,-5.016448 8.651539,-8.064232c0.108524,-0.087496 0.217048,-0.174992 0.325572,-0.259572c-0.021705,3.275274 -0.047751,6.690542 -0.047751,8.186727c-0.008682,1.656594 -2.001184,2.995286 -4.46251,3.001119c-2.404893,-0.005833 -4.349645,-1.277444 -4.466851,-2.864042zm47.342542,-18.700852c-1.649566,-0.446231 -3.542226,-0.174992 -4.770718,0.699969c-0.039069,0.023332 -4.501579,3.199444 -9.029203,6.830536c-2.270324,1.822837 -4.55367,3.747753 -6.346488,5.529759c-1.745067,1.892834 -3.273086,3.111948 -3.524862,5.500594c0,4.876454 5.877664,8.834198 13.153118,8.834198c7.262431,0 13.140095,-3.957744 13.140095,-8.834198c0,-3.251942 0.095501,-15.822227 0.095501,-15.839726c0.013023,-1.195781 -1.067877,-2.274901 -2.717443,-2.721131zm-6.04262,18.560858c-0.017364,1.656594 -2.009866,2.995286 -4.475533,3.001119c-2.400552,-0.005833 -4.349645,-1.277444 -4.46251,-2.864042c0.399369,-1.017872 4.692581,-5.016448 8.651539,-8.064232c0.108524,-0.081663 0.217048,-0.172076 0.321231,-0.256655c-0.017364,3.275274 -0.034728,6.684709 -0.034728,8.18381z" fill-opacity="null" stroke-opacity="null" stroke-width="1.5" stroke="#000000" fill="#aaffff"/>
  <path id="svg_166" d="m430.971914,51.27689c-0.34986,-9.98067 -12.553128,-18.000305 -27.562881,-18.005392c-10.031854,0.002543 -18.793565,3.591413 -23.607942,8.945468c-2.262681,-0.831722 -4.867617,-1.314986 -7.64368,-1.314986c-8.66664,0.005087 -15.717079,4.59355 -16.032713,10.341846c-9.100162,1.999186 -15.686656,7.694069 -15.694262,14.462306c0,8.424051 10.218193,15.260963 22.816955,15.260963l0,-0.005087l60.366056,0c12.594959,0 22.816955,-6.836911 22.816955,-15.260963c-0.007606,-6.707193 -6.480015,-12.379184 -15.458487,-14.424153zm-7.358468,24.603215l-60.369859,0c-8.400442,-0.015261 -15.199895,-4.557941 -15.215106,-10.176519c-0.007606,-5.041205 5.514097,-9.202361 12.739466,-9.998474c1.007749,-0.10937 1.909019,-0.485807 2.498457,-1.053006c0.589438,-0.567199 0.806199,-1.264116 0.619861,-1.940686c-0.106479,-0.376437 -0.171127,-0.732526 -0.171127,-1.078441c0.015211,-3.11578 3.783812,-5.636382 8.442273,-5.641469c2.460428,0 4.628039,0.707091 6.210014,1.859294c0.886058,0.653678 2.232259,0.95381 3.525219,0.78594c1.300566,-0.167871 2.380569,-0.780853 2.844514,-1.602401c2.848317,-5.06664 10.123122,-8.678401 18.675677,-8.673314c11.024392,0.010174 19.942018,5.97721 19.968638,13.350799c0,0.409502 -0.034225,0.829179 -0.102676,1.264116c-0.186338,1.314986 1.159862,2.502798 3.099303,2.74443c7.073256,0.874962 12.450452,5.000509 12.439043,9.978126c-0.015211,5.621121 -6.803255,10.166345 -15.203697,10.181606zm-54.787311,24.67952c0,-2.835996 0.079859,-13.798454 0.079859,-13.816258c0.007606,-1.040289 -0.939298,-1.981382 -2.388175,-2.370536c-1.445074,-0.386611 -3.099303,-0.150066 -4.179306,0.610439c-0.022817,0.020348 -3.94353,2.792756 -7.91368,5.956862c-1.988878,1.594771 -3.985361,3.273476 -5.563534,4.822464c-1.517327,1.648184 -2.863528,2.711364 -3.084092,4.794486c0.011408,4.257809 5.156632,7.706786 11.530168,7.714417c6.358325,-0.010174 11.518759,-3.459152 11.518759,-7.711873zm-15.431867,0.114457c0.346057,-0.887679 4.110855,-4.372266 7.579032,-7.030217c0.095071,-0.073761 0.193944,-0.155153 0.289015,-0.226371c-0.019014,2.858887 -0.038028,5.834775 -0.038028,7.142131c0,1.442161 -1.753103,2.614712 -3.913108,2.619799c-2.106765,-0.005087 -3.818037,-1.116594 -3.916911,-2.505341zm43.557566,-0.114457c0,-2.835996 0.079859,-13.79591 0.079859,-13.811171c0.007606,-1.042832 -0.939298,-1.981382 -2.388175,-2.375623c-1.448877,-0.386611 -3.0955,-0.147523 -4.183108,0.615525c-0.022817,0.020348 -3.935925,2.782582 -7.909878,5.956862c-1.985075,1.584597 -3.981559,3.26839 -5.563534,4.817377c-1.517327,1.650727 -2.863528,2.716451 -3.076486,4.802116c0,4.252722 5.149026,7.701699 11.518759,7.701699c6.362128,-0.002543 11.522562,-3.454065 11.522562,-7.706786zm-15.439473,0.119544c0.34986,-0.887679 4.110855,-4.374809 7.579032,-7.03276c0.095071,-0.076305 0.190141,-0.15261 0.285212,-0.226371c-0.019014,2.856344 -0.041831,5.834775 -0.041831,7.139587c-0.007606,1.444704 -1.753103,2.612168 -3.909305,2.617255c-2.106765,-0.005087 -3.810431,-1.11405 -3.913108,-2.497711zm41.473618,-16.308882c-1.445074,-0.389155 -3.103106,-0.15261 -4.179306,0.610439c-0.034225,0.020348 -3.94353,2.790213 -7.909878,5.956862c-1.988878,1.589684 -3.989164,3.26839 -5.559731,4.822464c-1.528736,1.650727 -2.867331,2.713908 -3.087895,4.797029c0,4.252722 5.149026,7.704243 11.522562,7.704243c6.362128,0 11.511154,-3.451521 11.511154,-7.704243c0,-2.835996 0.083662,-13.798454 0.083662,-13.813715c0.011408,-1.042832 -0.935495,-1.983925 -2.380569,-2.37308zm-5.293533,16.186794c-0.015211,1.444704 -1.760708,2.612168 -3.920713,2.617255c-2.102963,-0.005087 -3.810431,-1.11405 -3.909305,-2.497711c0.34986,-0.887679 4.110855,-4.374809 7.579032,-7.03276c0.095071,-0.071218 0.190141,-0.150066 0.281409,-0.223827c-0.015211,2.856344 -0.030423,5.829688 -0.030423,7.137044z" fill-opacity="null" stroke-opacity="null" stroke-width="1.5" stroke="#000000" fill="#aaffff"/>
  <path id="svg_167" d="m430.971914,51.27689c-0.34986,-9.980669 -12.553128,-18.000305 -27.562881,-18.005392c-10.031854,0.002543 -18.793565,3.591413 -23.607942,8.945467c-2.262682,-0.831722 -4.867617,-1.314986 -7.64368,-1.314986c-8.66664,0.005087 -15.717079,4.59355 -16.032714,10.341846c-9.100162,1.999186 -15.686656,7.694068 -15.694262,14.462305c0,8.424052 10.218193,15.260963 22.816955,15.260963l0,-0.005087l60.366056,0c12.594959,0 22.816955,-6.836911 22.816955,-15.260963c-0.007606,-6.707193 -6.480015,-12.379184 -15.458487,-14.424153zm-7.358468,24.603216l-60.369859,0c-8.400442,-0.015261 -15.199894,-4.557941 -15.215106,-10.176519c-0.007605,-5.041205 5.514098,-9.202361 12.739467,-9.998474c1.007748,-0.10937 1.909018,-0.485807 2.498456,-1.053007c0.589438,-0.567199 0.806199,-1.264116 0.619861,-1.940685c-0.106479,-0.376437 -0.171127,-0.732527 -0.171127,-1.078442c0.015211,-3.11578 3.783811,-5.636382 8.442273,-5.641469c2.460428,0 4.628039,0.707091 6.210014,1.859294c0.886059,0.653678 2.232259,0.95381 3.52522,0.78594c1.300566,-0.167871 2.380569,-0.780853 2.844513,-1.602401c2.848317,-5.06664 10.123123,-8.678401 18.675678,-8.673314c11.024392,0.010174 19.942018,5.97721 19.968638,13.350799c0,0.409502 -0.034226,0.829179 -0.102676,1.264116c-0.186339,1.314986 1.159861,2.502798 3.099303,2.74443c7.073256,0.874962 12.450451,5.000509 12.439043,9.978126c-0.015212,5.621121 -6.803256,10.166345 -15.203698,10.181606zm-54.787311,24.67952c0,-2.835996 0.07986,-13.798454 0.07986,-13.816259c0.007605,-1.040288 -0.939298,-1.981381 -2.388175,-2.370536c-1.445074,-0.386611 -3.099303,-0.150066 -4.179305,0.610439c-0.022817,0.020348 -3.943531,2.792756 -7.913681,5.956862c-1.988878,1.594771 -3.985361,3.273477 -5.563534,4.822464c-1.517327,1.648184 -2.863528,2.711365 -3.084092,4.794486c0.011409,4.257809 5.156632,7.706786 11.530168,7.714417c6.358325,-0.010174 11.518759,-3.459152 11.518759,-7.711873zm-15.431867,0.114457c0.346058,-0.887679 4.110855,-4.372266 7.579032,-7.030217c0.095071,-0.073761 0.193944,-0.155153 0.289015,-0.226371c-0.019014,2.858887 -0.038028,5.834775 -0.038028,7.142131c0,1.442161 -1.753103,2.614711 -3.913108,2.619798c-2.106766,-0.005087 -3.818037,-1.116593 -3.916911,-2.505341zm43.557567,-0.114457c0,-2.835996 0.079859,-13.795911 0.079859,-13.811172c0.007606,-1.042832 -0.939298,-1.981381 -2.388174,-2.375623c-1.448877,-0.386611 -3.095501,-0.147522 -4.183109,0.615526c-0.022817,0.020348 -3.935924,2.782582 -7.909877,5.956862c-1.985075,1.584597 -3.981559,3.26839 -5.563535,4.817377c-1.517327,1.650728 -2.863527,2.716452 -3.076486,4.802117c0,4.252721 5.149027,7.701699 11.51876,7.701699c6.362127,-0.002544 11.522562,-3.454065 11.522562,-7.706786zm-15.439473,0.119544c0.34986,-0.887679 4.110855,-4.374809 7.579032,-7.03276c0.095071,-0.076305 0.190141,-0.15261 0.285212,-0.226371c-0.019014,2.856343 -0.041831,5.834774 -0.041831,7.139587c-0.007606,1.444704 -1.753103,2.612168 -3.909305,2.617255c-2.106766,-0.005087 -3.810432,-1.11405 -3.913108,-2.497711zm41.473618,-16.308882c-1.445074,-0.389155 -3.103106,-0.15261 -4.179306,0.610438c-0.034225,0.020348 -3.94353,2.790213 -7.909877,5.956863c-1.988878,1.589683 -3.989164,3.268389 -5.559731,4.822464c-1.528736,1.650727 -2.867331,2.713908 -3.087895,4.797029c0,4.252722 5.149026,7.704243 11.522562,7.704243c6.362128,0 11.511154,-3.451521 11.511154,-7.704243c0,-2.835995 0.083662,-13.798454 0.083662,-13.813715c0.011408,-1.042832 -0.935495,-1.983925 -2.380569,-2.373079zm-5.293533,16.186794c-0.015212,1.444705 -1.760709,2.612168 -3.920714,2.617255c-2.102962,-0.005087 -3.810431,-1.11405 -3.909305,-2.497711c0.34986,-0.887679 4.110855,-4.374809 7.579032,-7.03276c0.095071,-0.071218 0.190141,-0.150066 0.281409,-0.223827c-0.015211,2.856343 -0.030422,5.829687 -0.030422,7.137043z" fill-opacity="null" stroke-opacity="null" stroke-width="1.5" stroke="#000000" fill="#aaffff"/>
  <path id="svg_168" d="m556.971914,21.27689c-0.34986,-9.980669 -12.553128,-18.000305 -27.562881,-18.005392c-10.031854,0.002543 -18.793565,3.591413 -23.607942,8.945467c-2.262682,-0.831722 -4.867617,-1.314986 -7.64368,-1.314986c-8.66664,0.005087 -15.717079,4.59355 -16.032714,10.341846c-9.100162,1.999186 -15.686656,7.694068 -15.694262,14.462305c0,8.424052 10.218193,15.260963 22.816955,15.260963l0,-0.005087l60.366056,0c12.594959,0 22.816955,-6.836911 22.816955,-15.260963c-0.007606,-6.707193 -6.480015,-12.379184 -15.458487,-14.424153zm-7.358468,24.603216l-60.369859,0c-8.400442,-0.015261 -15.199894,-4.557941 -15.215106,-10.176519c-0.007605,-5.041205 5.514098,-9.202361 12.739467,-9.998474c1.007748,-0.10937 1.909018,-0.485807 2.498456,-1.053007c0.589438,-0.567199 0.806199,-1.264116 0.619861,-1.940685c-0.106479,-0.376437 -0.171127,-0.732527 -0.171127,-1.078442c0.015211,-3.11578 3.783811,-5.636382 8.442273,-5.641469c2.460428,0 4.628039,0.707091 6.210014,1.859294c0.886059,0.653678 2.232259,0.95381 3.52522,0.78594c1.300566,-0.167871 2.380569,-0.780853 2.844513,-1.602401c2.848317,-5.06664 10.123123,-8.678401 18.675678,-8.673314c11.024392,0.010174 19.942018,5.97721 19.968638,13.350799c0,0.409502 -0.034226,0.829179 -0.102676,1.264116c-0.186339,1.314986 1.159861,2.502798 3.099303,2.74443c7.073256,0.874962 12.450451,5.000509 12.439043,9.978126c-0.015212,5.621121 -6.803256,10.166345 -15.203698,10.181606zm-54.787311,24.67952c0,-2.835996 0.07986,-13.798454 0.07986,-13.816259c0.007605,-1.040288 -0.939298,-1.981381 -2.388175,-2.370536c-1.445074,-0.386611 -3.099303,-0.150066 -4.179305,0.610439c-0.022817,0.020348 -3.943531,2.792756 -7.913681,5.956862c-1.988878,1.594771 -3.985361,3.273477 -5.563534,4.822464c-1.517327,1.648184 -2.863528,2.711365 -3.084092,4.794486c0.011409,4.257809 5.156632,7.706786 11.530168,7.714417c6.358325,-0.010174 11.518759,-3.459152 11.518759,-7.711873zm-15.431867,0.114457c0.346058,-0.887679 4.110855,-4.372266 7.579032,-7.030217c0.095071,-0.073761 0.193944,-0.155153 0.289015,-0.226371c-0.019014,2.858887 -0.038028,5.834775 -0.038028,7.142131c0,1.442161 -1.753103,2.614711 -3.913108,2.619798c-2.106766,-0.005087 -3.818037,-1.116593 -3.916911,-2.505341zm43.557567,-0.114457c0,-2.835996 0.079859,-13.795911 0.079859,-13.811172c0.007606,-1.042832 -0.939298,-1.981381 -2.388174,-2.375623c-1.448877,-0.386611 -3.095501,-0.147522 -4.183109,0.615526c-0.022817,0.020348 -3.935924,2.782582 -7.909877,5.956862c-1.985075,1.584597 -3.981559,3.26839 -5.563535,4.817377c-1.517327,1.650728 -2.863527,2.716452 -3.076486,4.802117c0,4.252721 5.149027,7.701699 11.51876,7.701699c6.362127,-0.002544 11.522562,-3.454065 11.522562,-7.706786zm-15.439473,0.119544c0.34986,-0.887679 4.110855,-4.374809 7.579032,-7.03276c0.095071,-0.076305 0.190141,-0.15261 0.285212,-0.226371c-0.019014,2.856343 -0.041831,5.834774 -0.041831,7.139587c-0.007606,1.444704 -1.753103,2.612168 -3.909305,2.617255c-2.106766,-0.005087 -3.810432,-1.11405 -3.913108,-2.497711zm41.473618,-16.308882c-1.445074,-0.389155 -3.103106,-0.15261 -4.179306,0.610438c-0.034225,0.020348 -3.94353,2.790213 -7.909877,5.956863c-1.988878,1.589683 -3.989164,3.268389 -5.559731,4.822464c-1.528736,1.650727 -2.867331,2.713908 -3.087895,4.797029c0,4.252722 5.149026,7.704243 11.522562,7.704243c6.362128,0 11.511154,-3.451521 11.511154,-7.704243c0,-2.835995 0.083662,-13.798454 0.083662,-13.813715c0.011408,-1.042832 -0.935495,-1.983925 -2.380569,-2.373079zm-5.293533,16.186794c-0.015212,1.444705 -1.760709,2.612168 -3.920714,2.617255c-2.102962,-0.005087 -3.810431,-1.11405 -3.909305,-2.497711c0.34986,-0.887679 4.110855,-4.374809 7.579032,-7.03276c0.095071,-0.071218 0.190141,-0.150066 0.281409,-0.223827c-0.015211,2.856343 -0.030422,5.829687 -0.030422,7.137043z" fill-opacity="null" stroke-opacity="null" stroke-width="1.5" stroke="#000000" fill="#aaffff"/>
 </g>
</svg>