<svg width="580" height="400" xmlns="http://www.w3.org/2000/svg">
 <!-- Created with Method Draw - http://github.com/duopixel/Method-Draw/ -->

 <g>
  <title>background</title>
  <rect x="-1" y="-1" width="582" height="402" id="canvas_background" fill="#fff"/>
  <g id="canvasGrid" display="none">
   <rect id="svg_1" width="100%" height="100%" x="0" y="0" stroke-width="0" fill="url(#gridpattern)"/>
  </g>
 </g>
 <g>
  <title>Layer 1</title>
  <rect stroke="#ffff00" id="svg_143" height="595.000035" width="920" y="-96.000035" x="-224.5" stroke-width="1.5" fill="#00007f"/>
  <rect stroke="#ffff00" fill="#000000" stroke-width="1.5" x="359.5" y="209.437497" width="81.999997" height="122.000003" id="svg_105"/>
  <rect stroke="#000000" fill="#ffff00" stroke-width="1.5" stroke-opacity="null" x="365" y="217" width="18" height="14" id="svg_108"/>
  <rect stroke="#000000" fill="#ffff00" stroke-width="1.5" stroke-opacity="null" x="391.5" y="217.4375" width="18" height="14" id="svg_43"/>
  <rect stroke="#000000" fill="#ffff00" stroke-width="1.5" stroke-opacity="null" x="417.5" y="217" width="18" height="14" id="svg_44"/>
  <rect stroke="#000000" fill="#ffff00" stroke-width="1.5" stroke-opacity="null" x="365" y="236" width="18" height="14" id="svg_49"/>
  <rect stroke="#000000" fill="#ffff00" stroke-width="1.5" stroke-opacity="null" x="391.5" y="236.4375" width="18" height="14" id="svg_50"/>
  <rect stroke="#000000" fill="#ffff00" stroke-width="1.5" stroke-opacity="null" x="417.5" y="236" width="18" height="14" id="svg_51"/>
  <rect stroke="#000000" fill="#ffff00" stroke-width="1.5" stroke-opacity="null" x="365" y="217" width="18" height="14" id="svg_52"/>
  <rect stroke="#000000" fill="#ffff00" stroke-width="1.5" stroke-opacity="null" x="391.5" y="217.4375" width="18" height="14" id="svg_53"/>
  <rect stroke="#000000" fill="#ffff00" stroke-width="1.5" stroke-opacity="null" x="417.5" y="217" width="18" height="14" id="svg_54"/>
  <rect stroke="#000000" fill="#ffff00" stroke-width="1.5" stroke-opacity="null" x="365" y="217" width="18" height="14" id="svg_55"/>
  <rect stroke="#000000" fill="#ffff00" stroke-width="1.5" stroke-opacity="null" x="391.5" y="217.4375" width="18" height="14" id="svg_56"/>
  <rect stroke="#000000" fill="#ffff00" stroke-width="1.5" stroke-opacity="null" x="417.5" y="217" width="18" height="14" id="svg_57"/>
  <rect stroke="#000000" fill="#ffff00" stroke-width="1.5" stroke-opacity="null" x="366" y="258" width="18" height="14" id="svg_58"/>
  <rect stroke="#000000" fill="#ffff00" stroke-width="1.5" stroke-opacity="null" x="392.5" y="258.4375" width="18" height="14" id="svg_59"/>
  <rect stroke="#000000" fill="#ffff00" stroke-width="1.5" stroke-opacity="null" x="418.5" y="258" width="18" height="14" id="svg_60"/>
  <rect stroke="#000000" fill="#ffff00" stroke-width="1.5" stroke-opacity="null" x="367" y="279" width="18" height="14" id="svg_61"/>
  <rect stroke="#000000" fill="#ffff00" stroke-width="1.5" stroke-opacity="null" x="393.5" y="279.4375" width="18" height="14" id="svg_62"/>
  <rect stroke="#000000" fill="#ffff00" stroke-width="1.5" stroke-opacity="null" x="419.5" y="279" width="18" height="14" id="svg_63"/>
  <rect stroke="#ffff00" fill="#000000" stroke-width="1.5" x="250.5" y="209.437497" width="81.999997" height="122.000003" id="svg_64"/>
  <rect stroke="#000000" fill="#ffff00" stroke-width="1.5" stroke-opacity="null" x="256" y="217" width="18" height="14" id="svg_65"/>
  <rect stroke="#000000" fill="#ffff00" stroke-width="1.5" stroke-opacity="null" x="282.5" y="217.4375" width="18" height="14" id="svg_66"/>
  <rect stroke="#000000" fill="#ffff00" stroke-width="1.5" stroke-opacity="null" x="308.5" y="217" width="18" height="14" id="svg_67"/>
  <rect stroke="#000000" fill="#ffff00" stroke-width="1.5" stroke-opacity="null" x="256" y="236" width="18" height="14" id="svg_68"/>
  <rect stroke="#000000" fill="#ffff00" stroke-width="1.5" stroke-opacity="null" x="282.5" y="236.4375" width="18" height="14" id="svg_69"/>
  <rect stroke="#000000" fill="#ffff00" stroke-width="1.5" stroke-opacity="null" x="308.5" y="236" width="18" height="14" id="svg_70"/>
  <rect stroke="#000000" fill="#ffff00" stroke-width="1.5" stroke-opacity="null" x="256" y="217" width="18" height="14" id="svg_71"/>
  <rect stroke="#000000" fill="#ffff00" stroke-width="1.5" stroke-opacity="null" x="282.5" y="217.4375" width="18" height="14" id="svg_72"/>
  <rect stroke="#000000" fill="#ffff00" stroke-width="1.5" stroke-opacity="null" x="308.5" y="217" width="18" height="14" id="svg_73"/>
  <rect stroke="#000000" fill="#ffff00" stroke-width="1.5" stroke-opacity="null" x="256" y="217" width="18" height="14" id="svg_74"/>
  <rect stroke="#000000" fill="#ffff00" stroke-width="1.5" stroke-opacity="null" x="282.5" y="217.4375" width="18" height="14" id="svg_75"/>
  <rect stroke="#000000" fill="#ffff00" stroke-width="1.5" stroke-opacity="null" x="308.5" y="217" width="18" height="14" id="svg_76"/>
  <rect stroke="#000000" fill="#ffff00" stroke-width="1.5" stroke-opacity="null" x="257" y="258" width="18" height="14" id="svg_77"/>
  <rect stroke="#000000" fill="#ffff00" stroke-width="1.5" stroke-opacity="null" x="283.5" y="258.4375" width="18" height="14" id="svg_78"/>
  <rect stroke="#000000" fill="#ffff00" stroke-width="1.5" stroke-opacity="null" x="309.5" y="258" width="18" height="14" id="svg_79"/>
  <rect stroke="#000000" fill="#ffff00" stroke-width="1.5" stroke-opacity="null" x="258" y="279" width="18" height="14" id="svg_80"/>
  <rect stroke="#000000" fill="#ffff00" stroke-width="1.5" stroke-opacity="null" x="284.5" y="279.4375" width="18" height="14" id="svg_81"/>
  <rect stroke="#000000" fill="#ffff00" stroke-width="1.5" stroke-opacity="null" x="310.5" y="279" width="18" height="14" id="svg_82"/>
  <rect stroke="#ffff00" fill="#000000" stroke-width="1.5" x="140.5" y="208.437497" width="81.999997" height="122.000003" id="svg_83"/>
  <rect stroke="#000000" fill="#ffff00" stroke-width="1.5" stroke-opacity="null" x="146" y="216" width="18" height="14" id="svg_84"/>
  <rect stroke="#000000" fill="#ffff00" stroke-width="1.5" stroke-opacity="null" x="172.5" y="216.4375" width="18" height="14" id="svg_85"/>
  <rect stroke="#000000" fill="#ffff00" stroke-width="1.5" stroke-opacity="null" x="198.5" y="216" width="18" height="14" id="svg_86"/>
  <rect stroke="#000000" fill="#ffff00" stroke-width="1.5" stroke-opacity="null" x="146" y="235" width="18" height="14" id="svg_87"/>
  <rect stroke="#000000" fill="#ffff00" stroke-width="1.5" stroke-opacity="null" x="172.5" y="235.4375" width="18" height="14" id="svg_88"/>
  <rect stroke="#000000" fill="#ffff00" stroke-width="1.5" stroke-opacity="null" x="198.5" y="235" width="18" height="14" id="svg_89"/>
  <rect stroke="#000000" fill="#ffff00" stroke-width="1.5" stroke-opacity="null" x="146" y="216" width="18" height="14" id="svg_90"/>
  <rect stroke="#000000" fill="#ffff00" stroke-width="1.5" stroke-opacity="null" x="172.5" y="216.4375" width="18" height="14" id="svg_91"/>
  <rect stroke="#000000" fill="#ffff00" stroke-width="1.5" stroke-opacity="null" x="198.5" y="216" width="18" height="14" id="svg_92"/>
  <rect stroke="#000000" fill="#ffff00" stroke-width="1.5" stroke-opacity="null" x="146" y="216" width="18" height="14" id="svg_93"/>
  <rect stroke="#000000" fill="#ffff00" stroke-width="1.5" stroke-opacity="null" x="172.5" y="216.4375" width="18" height="14" id="svg_94"/>
  <rect stroke="#000000" fill="#ffff00" stroke-width="1.5" stroke-opacity="null" x="198.5" y="216" width="18" height="14" id="svg_95"/>
  <rect stroke="#000000" fill="#ffff00" stroke-width="1.5" stroke-opacity="null" x="147" y="257" width="18" height="14" id="svg_96"/>
  <rect stroke="#000000" fill="#ffff00" stroke-width="1.5" stroke-opacity="null" x="173.5" y="257.4375" width="18" height="14" id="svg_97"/>
  <rect stroke="#000000" fill="#ffff00" stroke-width="1.5" stroke-opacity="null" x="199.5" y="257" width="18" height="14" id="svg_98"/>
  <rect stroke="#000000" fill="#ffff00" stroke-width="1.5" stroke-opacity="null" x="148" y="278" width="18" height="14" id="svg_99"/>
  <rect stroke="#000000" fill="#ffff00" stroke-width="1.5" stroke-opacity="null" x="174.5" y="278.4375" width="18" height="14" id="svg_100"/>
  <rect stroke="#000000" fill="#ffff00" stroke-width="1.5" stroke-opacity="null" x="200.5" y="278" width="18" height="14" id="svg_101"/>
  <rect stroke="#ffff00" fill="#000000" stroke-width="1.5" x="34.5" y="209.437497" width="81.999997" height="122.000003" id="svg_102"/>
  <rect stroke="#000000" fill="#ffff00" stroke-width="1.5" stroke-opacity="null" x="40" y="217" width="18" height="14" id="svg_103"/>
  <rect stroke="#000000" fill="#ffff00" stroke-width="1.5" stroke-opacity="null" x="66.5" y="217.4375" width="18" height="14" id="svg_104"/>
  <rect stroke="#000000" fill="#ffff00" stroke-width="1.5" stroke-opacity="null" x="92.5" y="217" width="18" height="14" id="svg_106"/>
  <rect stroke="#000000" fill="#ffff00" stroke-width="1.5" stroke-opacity="null" x="40" y="236" width="18" height="14" id="svg_107"/>
  <rect stroke="#000000" fill="#ffff00" stroke-width="1.5" stroke-opacity="null" x="66.5" y="236.4375" width="18" height="14" id="svg_109"/>
  <rect stroke="#000000" fill="#ffff00" stroke-width="1.5" stroke-opacity="null" x="92.5" y="236" width="18" height="14" id="svg_110"/>
  <rect stroke="#000000" fill="#ffff00" stroke-width="1.5" stroke-opacity="null" x="40" y="217" width="18" height="14" id="svg_111"/>
  <rect stroke="#000000" fill="#ffff00" stroke-width="1.5" stroke-opacity="null" x="66.5" y="217.4375" width="18" height="14" id="svg_112"/>
  <rect stroke="#000000" fill="#ffff00" stroke-width="1.5" stroke-opacity="null" x="92.5" y="217" width="18" height="14" id="svg_113"/>
  <rect stroke="#000000" fill="#ffff00" stroke-width="1.5" stroke-opacity="null" x="40" y="217" width="18" height="14" id="svg_114"/>
  <rect stroke="#000000" fill="#ffff00" stroke-width="1.5" stroke-opacity="null" x="66.5" y="217.4375" width="18" height="14" id="svg_115"/>
  <rect stroke="#000000" fill="#ffff00" stroke-width="1.5" stroke-opacity="null" x="92.5" y="217" width="18" height="14" id="svg_116"/>
  <rect stroke="#000000" fill="#ffff00" stroke-width="1.5" stroke-opacity="null" x="41" y="258" width="18" height="14" id="svg_117"/>
  <rect stroke="#000000" fill="#ffff00" stroke-width="1.5" stroke-opacity="null" x="67.5" y="258.4375" width="18" height="14" id="svg_118"/>
  <rect stroke="#000000" fill="#ffff00" stroke-width="1.5" stroke-opacity="null" x="93.5" y="258" width="18" height="14" id="svg_119"/>
  <rect stroke="#000000" fill="#ffff00" stroke-width="1.5" stroke-opacity="null" x="42" y="279" width="18" height="14" id="svg_120"/>
  <rect stroke="#000000" fill="#ffff00" stroke-width="1.5" stroke-opacity="null" x="68.5" y="279.4375" width="18" height="14" id="svg_121"/>
  <rect stroke="#000000" fill="#ffff00" stroke-width="1.5" stroke-opacity="null" x="94.5" y="279" width="18" height="14" id="svg_122"/>
  <rect stroke="#ffff00" fill="#000000" stroke-width="1.5" x="457.5" y="208.437497" width="81.999997" height="122.000003" id="svg_123"/>
  <rect stroke="#000000" fill="#ffff00" stroke-width="1.5" stroke-opacity="null" x="463" y="216" width="18" height="14" id="svg_124"/>
  <rect stroke="#000000" fill="#ffff00" stroke-width="1.5" stroke-opacity="null" x="489.5" y="216.4375" width="18" height="14" id="svg_125"/>
  <rect stroke="#000000" fill="#ffff00" stroke-width="1.5" stroke-opacity="null" x="515.5" y="216" width="18" height="14" id="svg_126"/>
  <rect stroke="#000000" fill="#ffff00" stroke-width="1.5" stroke-opacity="null" x="463" y="235" width="18" height="14" id="svg_127"/>
  <rect stroke="#000000" fill="#ffff00" stroke-width="1.5" stroke-opacity="null" x="489.5" y="235.4375" width="18" height="14" id="svg_128"/>
  <rect stroke="#000000" fill="#ffff00" stroke-width="1.5" stroke-opacity="null" x="515.5" y="235" width="18" height="14" id="svg_129"/>
  <rect stroke="#000000" fill="#ffff00" stroke-width="1.5" stroke-opacity="null" x="463" y="216" width="18" height="14" id="svg_130"/>
  <rect stroke="#000000" fill="#ffff00" stroke-width="1.5" stroke-opacity="null" x="489.5" y="216.4375" width="18" height="14" id="svg_131"/>
  <rect stroke="#000000" fill="#ffff00" stroke-width="1.5" stroke-opacity="null" x="515.5" y="216" width="18" height="14" id="svg_132"/>
  <rect stroke="#000000" fill="#ffff00" stroke-width="1.5" stroke-opacity="null" x="463" y="216" width="18" height="14" id="svg_133"/>
  <rect stroke="#000000" fill="#ffff00" stroke-width="1.5" stroke-opacity="null" x="489.5" y="216.4375" width="18" height="14" id="svg_134"/>
  <rect stroke="#000000" fill="#ffff00" stroke-width="1.5" stroke-opacity="null" x="515.5" y="216" width="18" height="14" id="svg_135"/>
  <rect stroke="#000000" fill="#ffff00" stroke-width="1.5" stroke-opacity="null" x="464" y="257" width="18" height="14" id="svg_136"/>
  <rect stroke="#000000" fill="#ffff00" stroke-width="1.5" stroke-opacity="null" x="490.5" y="257.4375" width="18" height="14" id="svg_137"/>
  <rect stroke="#000000" fill="#ffff00" stroke-width="1.5" stroke-opacity="null" x="516.5" y="257" width="18" height="14" id="svg_138"/>
  <rect stroke="#000000" fill="#ffff00" stroke-width="1.5" stroke-opacity="null" x="465" y="278" width="18" height="14" id="svg_139"/>
  <rect stroke="#000000" fill="#ffff00" stroke-width="1.5" stroke-opacity="null" x="491.5" y="278.4375" width="18" height="14" id="svg_140"/>
  <rect stroke="#000000" fill="#ffff00" stroke-width="1.5" stroke-opacity="null" x="517.5" y="278" width="18" height="14" id="svg_141"/>
  <rect id="svg_142" height="247" width="698" y="323" x="-37.5" stroke-width="1.5" stroke="#ffff00" fill="#000000"/>
  <ellipse stroke="#ffff00" ry="11.5" rx="14" id="svg_148" cy="114.5" cx="445.5" stroke-opacity="null" stroke-width="1.5" fill="#ffffff"/>
  <ellipse stroke="#ffff00" ry="15" rx="53.5" id="svg_150" cy="130" cx="446" stroke-opacity="null" stroke-width="1.5" fill="#000000"/>
 </g>
</svg>