<svg width="580" height="400" xmlns="http://www.w3.org/2000/svg">
 <!-- Created with Method Draw - http://github.com/duopixel/Method-Draw/ -->
 <g>
  <title>background</title>
  <rect fill="#fff" id="canvas_background" height="402" width="582" y="-1" x="-1"/>
  <g display="none" overflow="visible" y="0" x="0" height="100%" width="100%" id="canvasGrid">
   <rect fill="url(#gridpattern)" stroke-width="0" y="0" x="0" height="100%" width="100%"/>
  </g>
 </g>
 <g>
  <title>Layer 1</title>
  <rect id="svg_92" height="673" width="949" y="-121.5625" x="-167.5" stroke-opacity="null" stroke-width="1.5" stroke="#000000" fill="#00ffff"/>
  <ellipse id="svg_18" cy="175.4375" cx="505.5" fill-opacity="null" stroke-opacity="null" stroke-width="1.5" stroke="#000" fill="none"/>
  <ellipse id="svg_19" cy="206.4375" cx="544.5" fill-opacity="null" stroke-opacity="null" stroke-width="1.5" stroke="#000" fill="none"/>
  <ellipse id="svg_20" cy="239.4375" cx="532.5" fill-opacity="null" stroke-opacity="null" stroke-width="1.5" stroke="#000" fill="none"/>
  <rect id="svg_71" height="179" width="735" y="271.4375" x="-51.5" stroke-opacity="null" stroke-width="1.5" stroke="#000000" fill="#00bf00"/>
  <ellipse stroke="#000000" ry="59.499999" rx="108.5" id="svg_70" cy="160.937499" cx="184" stroke-opacity="null" stroke-width="1.5" fill="#007f00"/>
  <ellipse stroke="#000000" ry="59.499999" rx="108.5" id="svg_74" cy="217.937499" cx="117" stroke-opacity="null" stroke-width="1.5" fill="#007f00"/>
  <rect id="svg_75" height="203" width="61" y="291.4375" x="153.5" stroke-width="1.5" stroke="#000000" fill="#7f3f00"/>
  <ellipse stroke="#000000" ry="59.499999" rx="108.5" id="svg_76" cy="296.937499" cx="206" stroke-opacity="null" stroke-width="1.5" fill="#007f00"/>
  <rect id="svg_77" height="203" width="61" y="323.4375" x="9.5" stroke-width="1.5" stroke="#000000" fill="#7f3f00"/>
  <ellipse stroke="#000000" ry="59.499999" rx="108.5" id="svg_78" cy="292.937499" cx="41" stroke-opacity="null" stroke-width="1.5" fill="#007f00"/>
  <rect id="svg_79" height="203" width="61" y="235.4375" x="244.5" stroke-width="1.5" stroke="#000000" fill="#7f3f00"/>
  <ellipse stroke="#000000" ry="59.499999" rx="108.5" id="svg_80" cy="231.937499" cx="273" stroke-opacity="null" stroke-width="1.5" fill="#007f00"/>
  <rect id="svg_81" height="203" width="61" y="218.4375" x="510.5" stroke-width="1.5" stroke="#000000" fill="#7f3f00"/>
  <rect id="svg_83" height="203" width="61" y="241.4375" x="389.5" stroke-width="1.5" stroke="#000000" fill="#7f3f00"/>
  <ellipse stroke="#000000" ry="59.499999" rx="108.5" id="svg_82" cy="214.937499" cx="539" stroke-opacity="null" stroke-width="1.5" fill="#007f00"/>
  <ellipse stroke="#000000" ry="59.499999" rx="108.5" id="svg_84" cy="237.937499" cx="418" stroke-opacity="null" stroke-width="1.5" fill="#007f00"/>
  <rect id="svg_85" height="203" width="61" y="312.4375" x="498.5" stroke-width="1.5" stroke="#000000" fill="#7f3f00"/>
  <ellipse stroke="#000000" ry="59.499999" rx="108.5" id="svg_86" cy="308.937499" cx="527" stroke-opacity="null" stroke-width="1.5" fill="#007f00"/>
  <rect id="svg_87" height="203" width="61" y="302.4375" x="316.5" stroke-width="1.5" stroke="#000000" fill="#7f3f00"/>
  <ellipse stroke="#000000" ry="59.499999" rx="108.5" id="svg_88" cy="298.937499" cx="345" stroke-opacity="null" stroke-width="1.5" fill="#007f00"/>
  <rect id="svg_89" height="203" width="61" y="379.4375" x="465.5" stroke-width="1.5" stroke="#000000" fill="#7f3f00"/>
  <ellipse stroke="#000000" ry="59.499999" rx="108.5" id="svg_90" cy="375.937499" cx="494" stroke-opacity="null" stroke-width="1.5" fill="#007f00"/>
  <ellipse ry="44" rx="47" id="svg_93" cy="87.4375" cx="466.5" stroke-opacity="null" stroke-width="1.5" stroke="#000000" fill="#ffff56"/>
  <line stroke-linecap="null" stroke-linejoin="null" id="svg_95" y2="89.4375" x2="336.5" y1="83.4375" x1="388.5" stroke-width="1.5" stroke="#ffff56" fill="none"/>
  <line stroke-linecap="null" stroke-linejoin="null" id="svg_96" y2="42.4375" x2="375.5" y1="56.4375" x1="412.5" stroke-width="1.5" stroke="#ffff56" fill="none"/>
  <line stroke-linecap="null" stroke-linejoin="null" id="svg_97" y2="-0.5625" x2="464.5" y1="25.4375" x1="465.5" stroke-width="1.5" stroke="#ffff56" fill="none"/>
  <line stroke-linecap="null" stroke-linejoin="null" id="svg_98" y2="18.4375" x2="549.5" y1="42.4375" x1="516.5" stroke-width="1.5" stroke="#ffff56" fill="none"/>
  <line stroke-linecap="null" stroke-linejoin="null" id="svg_99" y2="98.4375" x2="585.5" y1="87.4375" x1="545.5" stroke-width="1.5" stroke="#ffff56" fill="none"/>
  <line stroke-linecap="null" stroke-linejoin="null" id="svg_100" y2="147.4375" x2="555.5" y1="121.4375" x1="528.5" stroke-width="1.5" stroke="#ffff56" fill="none"/>
  <line stroke-linecap="null" stroke-linejoin="null" id="svg_101" y2="180.4375" x2="475.5" y1="144.4375" x1="480.5" stroke-width="1.5" stroke="#ffff56" fill="none"/>
  <line stroke-linecap="null" stroke-linejoin="null" id="svg_102" y2="172.4375" x2="411.5" y1="140.4375" x1="426.5" stroke-width="1.5" stroke="#ffff56" fill="none"/>
  <line stroke-linecap="null" stroke-linejoin="null" id="svg_103" y2="144.4375" x2="338.5" y1="124.4375" x1="407.5" stroke-width="1.5" stroke="#ffff56" fill="none"/>
  <line stroke-linecap="null" stroke-linejoin="null" id="svg_104" y2="-48.5625" x2="356.5" y1="31.4375" x1="433.5" stroke-width="1.5" stroke="#ffff56" fill="none"/>
 </g>
</svg>